M48
;DRILL file {KiCad 4.0.7} date 08/07/18 08:57:37
;FORMAT={-:-/ absolute / inch / decimal}
FMAT,2
INCH,TZ
T1C0.016
T2C0.024
T3C0.030
T4C0.031
T5C0.035
T6C0.039
T7C0.047
T8C0.098
T9C0.126
%
G90
G05
M72
T1
X5.6Y-2.85
X6.35Y-4.7
X6.4Y-2.7
X7.2Y-3.
X8.2Y-3.4
X8.25Y-2.65
X8.55Y-2.65
X8.7Y-2.5
T2
X8.05Y-3.25
X8.1Y-3.25
X8.15Y-3.25
X8.2Y-3.25
T3
X4.8Y-3.
X4.8Y-3.1
X4.8Y-3.2
X4.8Y-3.3
X4.8Y-3.4
X4.8Y-3.5
X5.85Y-2.65
X6.25Y-2.85
X6.25Y-2.95
X6.25Y-3.05
X6.25Y-3.15
X6.25Y-3.25
X6.25Y-3.35
X6.25Y-3.45
X6.25Y-3.55
X6.95Y-2.9
X6.95Y-3.
X6.95Y-3.1
X6.95Y-3.4
X6.95Y-3.5
X7.7Y-2.9
X7.7Y-3.
X7.7Y-3.4
X7.7Y-3.5
T4
X6.25Y-3.8
X6.3484Y-3.8
X6.5516Y-3.8
X6.6Y-2.6
X6.65Y-3.8
X6.6984Y-2.6
X7.5516Y-3.8
X7.65Y-3.8
T5
X5.85Y-2.55
X5.85Y-2.75
X5.85Y-2.85
X5.85Y-2.95
X5.85Y-3.05
X5.85Y-3.15
X5.85Y-3.25
X5.85Y-3.35
X5.85Y-3.45
X5.85Y-3.55
X5.85Y-3.65
X5.85Y-3.75
X5.85Y-3.85
X5.85Y-3.95
X5.85Y-4.05
X5.85Y-4.15
X5.85Y-4.25
X5.95Y-2.55
X5.95Y-2.65
X5.95Y-2.75
X5.95Y-2.85
X5.95Y-2.95
X5.95Y-3.05
X5.95Y-3.15
X5.95Y-3.25
X5.95Y-3.35
X5.95Y-3.45
X5.95Y-3.55
X5.95Y-3.65
X5.95Y-3.75
X5.95Y-3.85
X5.95Y-3.95
X5.95Y-4.05
X5.95Y-4.15
X5.95Y-4.25
X6.05Y-2.35
X6.15Y-2.35
X6.25Y-2.35
X6.25Y-4.25
X6.35Y-2.35
X6.35Y-4.25
X6.45Y-2.35
X6.45Y-4.25
X6.55Y-2.35
X6.55Y-4.25
X6.65Y-2.35
X6.65Y-4.25
X6.75Y-2.35
X6.75Y-4.25
X6.85Y-4.25
X6.95Y-2.35
X6.95Y-4.25
X7.05Y-2.35
X7.15Y-2.35
X7.15Y-4.25
X7.25Y-2.35
X7.25Y-4.25
X7.35Y-2.35
X7.35Y-4.25
X7.45Y-2.35
X7.45Y-4.25
X7.55Y-2.35
X7.55Y-4.25
X7.65Y-2.35
X7.65Y-4.25
X7.75Y-4.25
X7.85Y-2.1
X7.85Y-2.35
X7.85Y-4.25
X7.95Y-2.35
X8.Y-4.25
X8.05Y-2.35
X8.1Y-4.25
X8.15Y-2.1
X8.15Y-2.35
X8.2Y-4.25
X8.25Y-2.35
X8.3Y-4.25
X8.35Y-2.35
X8.4Y-4.25
X8.45Y-2.35
X8.5Y-4.25
X8.55Y-2.35
X8.6Y-4.25
X8.7Y-4.25
X8.8Y-4.25
X8.9Y-4.25
T6
X5.25Y-1.2079
X5.25Y-1.7
X5.25Y-4.9079
X5.25Y-5.4
X5.4469Y-1.2079
X5.4469Y-1.7
X5.4469Y-4.9079
X5.4469Y-5.4
X5.9031Y-1.2
X5.9031Y-1.6921
X5.9531Y-4.9
X5.9531Y-5.3921
X6.1Y-1.2
X6.1Y-1.6921
X6.15Y-4.9
X6.15Y-5.3921
X6.6531Y-4.9
X6.6531Y-5.3921
X6.85Y-4.9
X6.85Y-5.3921
X7.2Y-4.9079
X7.2Y-5.4
X7.2031Y-1.2
X7.2031Y-1.6921
X7.3969Y-4.9079
X7.3969Y-5.4
X7.4Y-1.2
X7.4Y-1.6921
X8.35Y-2.05
X8.45Y-2.05
X8.55Y-2.05
X8.65Y-2.05
X8.75Y-2.05
X8.85Y-2.05
X8.95Y-2.05
X9.05Y-2.05
X9.1Y-2.6
X9.1Y-3.
X9.2Y-2.5
X9.2Y-2.8
X9.2Y-3.1
X9.2Y-3.3
X9.2Y-3.4
X9.2Y-3.6
X9.2Y-3.7
X9.4Y-3.5
X9.5Y-2.8
X9.6Y-2.6
X9.6Y-3.
T7
X5.3Y-2.1
X5.3Y-4.5
X5.6Y-3.4
X5.6Y-3.9
X5.8Y-2.1
X5.8Y-4.5
X5.95Y-2.1
X5.95Y-4.5
X6.45Y-2.1
X6.45Y-4.5
X6.6Y-2.1
X6.6Y-4.1
X6.6Y-4.5
X6.9Y-3.8
X7.05Y-2.55
X7.1Y-2.1
X7.1Y-4.1
X7.1Y-4.5
X7.25Y-4.5
X7.3Y-4.05
X7.4Y-3.8
X7.55Y-2.55
X7.75Y-4.5
X7.8Y-4.05
X7.95Y-3.6
X7.95Y-3.75
X7.95Y-3.9
X7.95Y-4.1
X8.3Y-2.85
X8.4Y-3.05
X8.4Y-3.25
X8.4Y-3.4
X8.45Y-3.6
X8.45Y-3.75
X8.45Y-3.9
X8.45Y-4.1
X8.8Y-2.85
X8.9Y-3.05
X8.9Y-3.25
X8.9Y-3.4
T8
X5.1Y-3.1
X5.1Y-3.4
T9
X5.85Y-2.35
X6.1Y-4.25
X9.Y-2.35
X9.05Y-4.25
T0
M30
